<mxfile host="app.diagrams.net" modified="2021-08-18T02:48:28.322Z" agent="5.0 (Windows NT 10.0; Win64; x64) AppleWebKit/537.36 (KHTML, like Gecko) Chrome/91.0.4472.164 Safari/537.36" etag="mZzef8TADYgwEYeRbDwx" version="14.9.3" type="github">
  <diagram id="J2xXV078Q9i-UfQI18aw" name="Page-1">
    <mxGraphModel dx="372" dy="208" grid="1" gridSize="10" guides="1" tooltips="1" connect="1" arrows="1" fold="1" page="1" pageScale="1" pageWidth="827" pageHeight="1169" math="0" shadow="0">
      <root>
        <mxCell id="0" />
        <mxCell id="1" parent="0" />
        <mxCell id="o5GV8Gk0ljv7P5g3MCWA-1" style="rounded=0;orthogonalLoop=1;jettySize=auto;html=1;exitX=1;exitY=0.3333333333333333;exitDx=0;exitDy=0;exitPerimeter=0;entryX=0;entryY=0.5;entryDx=0;entryDy=0;endArrow=none;endFill=0;" edge="1" parent="1" source="hhD1AKu4e8yTT_dkiWfO-7" target="hhD1AKu4e8yTT_dkiWfO-8">
          <mxGeometry relative="1" as="geometry" />
        </mxCell>
        <mxCell id="o5GV8Gk0ljv7P5g3MCWA-2" style="edgeStyle=none;rounded=0;orthogonalLoop=1;jettySize=auto;html=1;exitX=1;exitY=1;exitDx=0;exitDy=0;exitPerimeter=0;entryX=0;entryY=0.5;entryDx=0;entryDy=0;endArrow=none;endFill=0;" edge="1" parent="1" source="hhD1AKu4e8yTT_dkiWfO-7" target="hhD1AKu4e8yTT_dkiWfO-9">
          <mxGeometry relative="1" as="geometry" />
        </mxCell>
        <mxCell id="hhD1AKu4e8yTT_dkiWfO-7" value="Actor" style="shape=umlActor;verticalLabelPosition=bottom;verticalAlign=top;html=1;" parent="1" vertex="1">
          <mxGeometry x="120" y="400" width="30" height="60" as="geometry" />
        </mxCell>
        <mxCell id="o5GV8Gk0ljv7P5g3MCWA-3" style="edgeStyle=none;rounded=0;orthogonalLoop=1;jettySize=auto;html=1;exitX=1;exitY=0;exitDx=0;exitDy=0;entryX=0;entryY=0.5;entryDx=0;entryDy=0;endArrow=none;endFill=0;" edge="1" parent="1" source="hhD1AKu4e8yTT_dkiWfO-8" target="hhD1AKu4e8yTT_dkiWfO-15">
          <mxGeometry relative="1" as="geometry" />
        </mxCell>
        <mxCell id="o5GV8Gk0ljv7P5g3MCWA-4" style="edgeStyle=none;rounded=0;orthogonalLoop=1;jettySize=auto;html=1;exitX=1;exitY=0.5;exitDx=0;exitDy=0;entryX=0;entryY=0.5;entryDx=0;entryDy=0;endArrow=none;endFill=0;" edge="1" parent="1" source="hhD1AKu4e8yTT_dkiWfO-8" target="hhD1AKu4e8yTT_dkiWfO-16">
          <mxGeometry relative="1" as="geometry" />
        </mxCell>
        <mxCell id="o5GV8Gk0ljv7P5g3MCWA-5" style="edgeStyle=none;rounded=0;orthogonalLoop=1;jettySize=auto;html=1;exitX=1;exitY=1;exitDx=0;exitDy=0;entryX=0;entryY=0.5;entryDx=0;entryDy=0;endArrow=none;endFill=0;" edge="1" parent="1" source="hhD1AKu4e8yTT_dkiWfO-8" target="hhD1AKu4e8yTT_dkiWfO-17">
          <mxGeometry relative="1" as="geometry" />
        </mxCell>
        <mxCell id="hhD1AKu4e8yTT_dkiWfO-8" value="operate Tray Spec" style="ellipse;whiteSpace=wrap;html=1;" parent="1" vertex="1">
          <mxGeometry x="210" y="320" width="140" height="70" as="geometry" />
        </mxCell>
        <mxCell id="hhD1AKu4e8yTT_dkiWfO-9" value="operate Msl Spec" style="ellipse;whiteSpace=wrap;html=1;" parent="1" vertex="1">
          <mxGeometry x="210" y="500" width="140" height="70" as="geometry" />
        </mxCell>
        <mxCell id="o5GV8Gk0ljv7P5g3MCWA-13" style="edgeStyle=none;rounded=0;orthogonalLoop=1;jettySize=auto;html=1;exitX=0;exitY=0.5;exitDx=0;exitDy=0;endArrow=none;endFill=0;entryX=0.746;entryY=0.063;entryDx=0;entryDy=0;entryPerimeter=0;" edge="1" parent="1" source="hhD1AKu4e8yTT_dkiWfO-14" target="hhD1AKu4e8yTT_dkiWfO-8">
          <mxGeometry relative="1" as="geometry">
            <mxPoint x="313" y="325" as="targetPoint" />
          </mxGeometry>
        </mxCell>
        <mxCell id="o5GV8Gk0ljv7P5g3MCWA-14" style="edgeStyle=none;rounded=0;orthogonalLoop=1;jettySize=auto;html=1;exitX=0;exitY=1;exitDx=0;exitDy=0;endArrow=none;endFill=0;" edge="1" parent="1" source="hhD1AKu4e8yTT_dkiWfO-14" target="hhD1AKu4e8yTT_dkiWfO-9">
          <mxGeometry relative="1" as="geometry" />
        </mxCell>
        <mxCell id="hhD1AKu4e8yTT_dkiWfO-14" value="search" style="ellipse;whiteSpace=wrap;html=1;" parent="1" vertex="1">
          <mxGeometry x="440" y="160" width="76" height="70" as="geometry" />
        </mxCell>
        <mxCell id="o5GV8Gk0ljv7P5g3MCWA-8" style="edgeStyle=none;rounded=0;orthogonalLoop=1;jettySize=auto;html=1;exitX=0;exitY=1;exitDx=0;exitDy=0;endArrow=none;endFill=0;" edge="1" parent="1" source="hhD1AKu4e8yTT_dkiWfO-15">
          <mxGeometry relative="1" as="geometry">
            <mxPoint x="314" y="504" as="targetPoint" />
          </mxGeometry>
        </mxCell>
        <mxCell id="hhD1AKu4e8yTT_dkiWfO-15" value="add" style="ellipse;whiteSpace=wrap;html=1;" parent="1" vertex="1">
          <mxGeometry x="440" y="250" width="76" height="70" as="geometry" />
        </mxCell>
        <mxCell id="o5GV8Gk0ljv7P5g3MCWA-9" style="edgeStyle=none;rounded=0;orthogonalLoop=1;jettySize=auto;html=1;exitX=0;exitY=1;exitDx=0;exitDy=0;entryX=1;entryY=0;entryDx=0;entryDy=0;endArrow=none;endFill=0;" edge="1" parent="1" source="hhD1AKu4e8yTT_dkiWfO-16" target="hhD1AKu4e8yTT_dkiWfO-9">
          <mxGeometry relative="1" as="geometry" />
        </mxCell>
        <mxCell id="hhD1AKu4e8yTT_dkiWfO-16" value="update" style="ellipse;whiteSpace=wrap;html=1;" parent="1" vertex="1">
          <mxGeometry x="440" y="340" width="76" height="70" as="geometry" />
        </mxCell>
        <mxCell id="o5GV8Gk0ljv7P5g3MCWA-10" style="edgeStyle=none;rounded=0;orthogonalLoop=1;jettySize=auto;html=1;exitX=0;exitY=1;exitDx=0;exitDy=0;entryX=1;entryY=0.5;entryDx=0;entryDy=0;endArrow=none;endFill=0;" edge="1" parent="1" source="hhD1AKu4e8yTT_dkiWfO-17" target="hhD1AKu4e8yTT_dkiWfO-9">
          <mxGeometry relative="1" as="geometry" />
        </mxCell>
        <mxCell id="hhD1AKu4e8yTT_dkiWfO-17" value="delete" style="ellipse;whiteSpace=wrap;html=1;" parent="1" vertex="1">
          <mxGeometry x="440" y="430" width="76" height="70" as="geometry" />
        </mxCell>
        <mxCell id="o5GV8Gk0ljv7P5g3MCWA-6" style="edgeStyle=none;rounded=0;orthogonalLoop=1;jettySize=auto;html=1;exitX=0;exitY=0;exitDx=0;exitDy=0;endArrow=none;endFill=0;" edge="1" parent="1" source="hhD1AKu4e8yTT_dkiWfO-18" target="hhD1AKu4e8yTT_dkiWfO-8">
          <mxGeometry relative="1" as="geometry" />
        </mxCell>
        <mxCell id="o5GV8Gk0ljv7P5g3MCWA-11" style="edgeStyle=none;rounded=0;orthogonalLoop=1;jettySize=auto;html=1;exitX=0;exitY=0.5;exitDx=0;exitDy=0;endArrow=none;endFill=0;entryX=0.956;entryY=0.712;entryDx=0;entryDy=0;entryPerimeter=0;" edge="1" parent="1" source="hhD1AKu4e8yTT_dkiWfO-18" target="hhD1AKu4e8yTT_dkiWfO-9">
          <mxGeometry relative="1" as="geometry">
            <mxPoint x="340" y="553" as="targetPoint" />
          </mxGeometry>
        </mxCell>
        <mxCell id="hhD1AKu4e8yTT_dkiWfO-18" value="export csv" style="ellipse;whiteSpace=wrap;html=1;" parent="1" vertex="1">
          <mxGeometry x="433" y="530" width="90" height="70" as="geometry" />
        </mxCell>
        <mxCell id="o5GV8Gk0ljv7P5g3MCWA-7" style="edgeStyle=none;rounded=0;orthogonalLoop=1;jettySize=auto;html=1;exitX=0;exitY=0;exitDx=0;exitDy=0;entryX=0.5;entryY=1;entryDx=0;entryDy=0;endArrow=none;endFill=0;" edge="1" parent="1" source="hhD1AKu4e8yTT_dkiWfO-19" target="hhD1AKu4e8yTT_dkiWfO-8">
          <mxGeometry relative="1" as="geometry" />
        </mxCell>
        <mxCell id="o5GV8Gk0ljv7P5g3MCWA-12" style="edgeStyle=none;rounded=0;orthogonalLoop=1;jettySize=auto;html=1;exitX=0;exitY=0.5;exitDx=0;exitDy=0;endArrow=none;endFill=0;entryX=0.805;entryY=0.899;entryDx=0;entryDy=0;entryPerimeter=0;" edge="1" parent="1" source="hhD1AKu4e8yTT_dkiWfO-19" target="hhD1AKu4e8yTT_dkiWfO-9">
          <mxGeometry relative="1" as="geometry">
            <mxPoint x="325" y="560" as="targetPoint" />
          </mxGeometry>
        </mxCell>
        <mxCell id="hhD1AKu4e8yTT_dkiWfO-19" value="upload csv" style="ellipse;whiteSpace=wrap;html=1;" parent="1" vertex="1">
          <mxGeometry x="433" y="630" width="90" height="70" as="geometry" />
        </mxCell>
      </root>
    </mxGraphModel>
  </diagram>
</mxfile>
